<svg width="900" height="524" viewBox="0 0 900 524" fill="none" xmlns="http://www.w3.org/2000/svg">
<path d="M900 0H0V500H900V0Z" fill="#FA7268"/>
<path d="M0 396.604L21.5 396.084C43 395.499 86 394.459 128.8 390.235C171.7 386.011 214.3 378.602 257.2 371.778C300 364.954 343 358.715 385.8 354.686C428.7 350.656 471.3 348.967 514.2 356.116C557 363.264 600 379.252 642.8 379.837C685.7 380.357 728.3 365.409 771.2 359.365C814 353.256 857 356.115 878.5 357.48L900 358.91V500.587H878.5C857 500.587 814 500.587 771.2 500.587C728.3 500.587 685.7 500.587 642.8 500.587C600 500.587 557 500.587 514.2 500.587C471.3 500.587 428.7 500.587 385.8 500.587C343 500.587 300 500.587 257.2 500.587C214.3 500.587 171.7 500.587 128.8 500.587C86 500.587 43 500.587 21.5 500.587H0V396.604Z" fill="#77AED7"/>
<path d="M0 381.007L21.5 385.036C43 389 86 397.059 128.8 401.673C171.7 406.352 214.3 407.652 257.2 402.908C300 398.099 343 387.31 385.8 386.401C428.7 385.556 471.3 394.654 514.2 399.659C557 404.598 600 405.508 642.8 404.533C685.7 403.558 728.3 400.698 771.2 399.529C814 398.359 857 398.749 878.5 399.009L900 399.204V500.587H878.5C857 500.587 814 500.587 771.2 500.587C728.3 500.587 685.7 500.587 642.8 500.587C600 500.587 557 500.587 514.2 500.587C471.3 500.587 428.7 500.587 385.8 500.587C343 500.587 300 500.587 257.2 500.587C214.3 500.587 171.7 500.587 128.8 500.587C86 500.587 43 500.587 21.5 500.587H0V381.007Z" fill="#083B60"/>
<path d="M0 451.845L21.5 447.166C43 442.552 86 433.193 128.8 429.944C171.7 426.694 214.3 429.554 257.2 427.929C300 426.304 343 420.195 385.8 422.795C428.7 425.394 471.3 436.703 514.2 435.728C557 434.753 600 421.495 642.8 416.426C685.7 411.357 728.3 414.346 771.2 418.57C814 422.795 857 428.254 878.5 430.918L900 433.648V500.587H878.5C857 500.587 814 500.587 771.2 500.587C728.3 500.587 685.7 500.587 642.8 500.587C600 500.587 557 500.587 514.2 500.587C471.3 500.587 428.7 500.587 385.8 500.587C343 500.587 300 500.587 257.2 500.587C214.3 500.587 171.7 500.587 128.8 500.587C86 500.587 43 500.587 21.5 500.587H0V451.845Z" fill="#001E35"/>
<path d="M0 457.694L21.5 456.589C43 455.55 86 453.34 128.8 456.524C171.7 459.644 214.3 468.093 257.2 472.512C300 476.996 343 477.386 385.8 476.411C428.7 475.436 471.3 473.097 514.2 467.573C557 462.048 600 453.34 642.8 454.77C685.7 456.199 728.3 467.638 771.2 469.262C814 470.887 857 462.698 878.5 458.539L900 454.445V500.587H878.5C857 500.587 814 500.587 771.2 500.587C728.3 500.587 685.7 500.587 642.8 500.587C600 500.587 557 500.587 514.2 500.587C471.3 500.587 428.7 500.587 385.8 500.587C343 500.587 300 500.587 257.2 500.587C214.3 500.587 171.7 500.587 128.8 500.587C86 500.587 43 500.587 21.5 500.587H0V457.694Z" fill="#001220"/>
<path d="M0 520.915L21.5 521.964C43 522.951 86 525.049 128.8 522.026C171.7 519.064 214.3 511.043 257.2 506.848C300 502.59 343 502.22 385.8 503.146C428.7 504.071 471.3 506.292 514.2 511.537C557 516.781 600 525.049 642.8 523.692C685.7 522.334 728.3 511.475 771.2 509.933C814 508.39 857 516.164 878.5 520.113L900 524V480.194H878.5C857 480.194 814 480.194 771.2 480.194C728.3 480.194 685.7 480.194 642.8 480.194C600 480.194 557 480.194 514.2 480.194C471.3 480.194 428.7 480.194 385.8 480.194C343 480.194 300 480.194 257.2 480.194C214.3 480.194 171.7 480.194 128.8 480.194C86 480.194 43 480.194 21.5 480.194H0V520.915Z" fill="#001220"/>
</svg>
