<svg width="900" height="624" viewBox="0 0 900 624" fill="none" xmlns="http://www.w3.org/2000/svg">
<path d="M900 0H0V600H900V0Z" fill="#001220"/>
<path d="M0 496.604L21.5 496.084C43 495.499 86 494.459 128.8 490.235C171.7 486.011 214.3 478.602 257.2 471.778C300 464.954 343 458.715 385.8 454.686C428.7 450.656 471.3 448.967 514.2 456.116C557 463.264 600 479.252 642.8 479.837C685.7 480.357 728.3 465.409 771.2 459.365C814 453.256 857 456.115 878.5 457.48L900 458.91V600.587H878.5C857 600.587 814 600.587 771.2 600.587C728.3 600.587 685.7 600.587 642.8 600.587C600 600.587 557 600.587 514.2 600.587C471.3 600.587 428.7 600.587 385.8 600.587C343 600.587 300 600.587 257.2 600.587C214.3 600.587 171.7 600.587 128.8 600.587C86 600.587 43 600.587 21.5 600.587H0V496.604Z" fill="#C62368"/>
<path d="M0 481.007L21.5 485.036C43 489 86 497.059 128.8 501.673C171.7 506.352 214.3 507.652 257.2 502.908C300 498.099 343 487.31 385.8 486.401C428.7 485.556 471.3 494.654 514.2 499.659C557 504.598 600 505.508 642.8 504.533C685.7 503.558 728.3 500.698 771.2 499.529C814 498.359 857 498.749 878.5 499.009L900 499.204V600.587H878.5C857 600.587 814 600.587 771.2 600.587C728.3 600.587 685.7 600.587 642.8 600.587C600 600.587 557 600.587 514.2 600.587C471.3 600.587 428.7 600.587 385.8 600.587C343 600.587 300 600.587 257.2 600.587C214.3 600.587 171.7 600.587 128.8 600.587C86 600.587 43 600.587 21.5 600.587H0V481.007Z" fill="#DA3F67"/>
<path d="M0 551.845L21.5 547.166C43 542.552 86 533.193 128.8 529.944C171.7 526.694 214.3 529.554 257.2 527.929C300 526.304 343 520.195 385.8 522.795C428.7 525.394 471.3 536.703 514.2 535.728C557 534.753 600 521.495 642.8 516.426C685.7 511.357 728.3 514.346 771.2 518.57C814 522.795 857 528.254 878.5 530.918L900 533.648V600.587H878.5C857 600.587 814 600.587 771.2 600.587C728.3 600.587 685.7 600.587 642.8 600.587C600 600.587 557 600.587 514.2 600.587C471.3 600.587 428.7 600.587 385.8 600.587C343 600.587 300 600.587 257.2 600.587C214.3 600.587 171.7 600.587 128.8 600.587C86 600.587 43 600.587 21.5 600.587H0V551.845Z" fill="#EB5967"/>
<path d="M0 557.694L21.5 556.589C43 555.55 86 553.34 128.8 556.524C171.7 559.644 214.3 568.093 257.2 572.512C300 576.996 343 577.386 385.8 576.411C428.7 575.436 471.3 573.097 514.2 567.573C557 562.048 600 553.34 642.8 554.77C685.7 556.199 728.3 567.638 771.2 569.262C814 570.887 857 562.698 878.5 558.539L900 554.445V600.587H878.5C857 600.587 814 600.587 771.2 600.587C728.3 600.587 685.7 600.587 642.8 600.587C600 600.587 557 600.587 514.2 600.587C471.3 600.587 428.7 600.587 385.8 600.587C343 600.587 300 600.587 257.2 600.587C214.3 600.587 171.7 600.587 128.8 600.587C86 600.587 43 600.587 21.5 600.587H0V557.694Z" fill="#FA7268"/>
<path d="M0 620.915L21.5 621.964C43 622.951 86 625.049 128.8 622.026C171.7 619.064 214.3 611.043 257.2 606.848C300 602.59 343 602.22 385.8 603.146C428.7 604.071 471.3 606.292 514.2 611.537C557 616.781 600 625.049 642.8 623.692C685.7 622.334 728.3 611.475 771.2 609.933C814 608.39 857 616.164 878.5 620.113L900 624V580.194H878.5C857 580.194 814 580.194 771.2 580.194C728.3 580.194 685.7 580.194 642.8 580.194C600 580.194 557 580.194 514.2 580.194C471.3 580.194 428.7 580.194 385.8 580.194C343 580.194 300 580.194 257.2 580.194C214.3 580.194 171.7 580.194 128.8 580.194C86 580.194 43 580.194 21.5 580.194H0V620.915Z" fill="#FA7268"/>
</svg>
