<svg width="900" height="524" viewBox="0 0 900 524" fill="none" xmlns="http://www.w3.org/2000/svg">
<path d="M0 524H900V24H0V524Z" fill="#FA7268"/>
<path d="M900 127.396L878.5 127.916C857 128.501 814 129.541 771.2 133.765C728.3 137.989 685.7 145.398 642.8 152.222C600 159.046 557 165.285 514.2 169.314C471.3 173.344 428.7 175.033 385.8 167.884C343 160.736 300 144.748 257.2 144.163C214.3 143.643 171.7 158.591 128.8 164.635C86 170.744 43 167.885 21.5 166.52L0 165.09V23.4127H21.5C43 23.4127 86 23.4127 128.8 23.4127C171.7 23.4127 214.3 23.4127 257.2 23.4127C300 23.4127 343 23.4127 385.8 23.4127C428.7 23.4127 471.3 23.4127 514.2 23.4127C557 23.4127 600 23.4127 642.8 23.4127C685.7 23.4127 728.3 23.4127 771.2 23.4127C814 23.4127 857 23.4127 878.5 23.4127H900V127.396Z" fill="#77AED7"/>
<path d="M900 142.993L878.5 138.964C857 135 814 126.941 771.2 122.327C728.3 117.648 685.7 116.348 642.8 121.092C600 125.901 557 136.69 514.2 137.599C471.3 138.444 428.7 129.346 385.8 124.341C343 119.402 300 118.492 257.2 119.467C214.3 120.442 171.7 123.302 128.8 124.471C86 125.641 43 125.251 21.5 124.991L0 124.796V23.4127H21.5C43 23.4127 86 23.4127 128.8 23.4127C171.7 23.4127 214.3 23.4127 257.2 23.4127C300 23.4127 343 23.4127 385.8 23.4127C428.7 23.4127 471.3 23.4127 514.2 23.4127C557 23.4127 600 23.4127 642.8 23.4127C685.7 23.4127 728.3 23.4127 771.2 23.4127C814 23.4127 857 23.4127 878.5 23.4127H900V142.993Z" fill="#083B60"/>
<path d="M900 72.1549L878.5 76.8341C857 81.4484 814 90.8069 771.2 94.0563C728.3 97.3058 685.7 94.4463 642.8 96.071C600 97.6957 557 103.805 514.2 101.205C471.3 98.6056 428.7 87.2974 385.8 88.2723C343 89.2471 300 102.505 257.2 107.574C214.3 112.643 171.7 109.654 128.8 105.43C86 101.205 43 95.7461 21.5 93.0815L0 90.3519V23.4127H21.5C43 23.4127 86 23.4127 128.8 23.4127C171.7 23.4127 214.3 23.4127 257.2 23.4127C300 23.4127 343 23.4127 385.8 23.4127C428.7 23.4127 471.3 23.4127 514.2 23.4127C557 23.4127 600 23.4127 642.8 23.4127C685.7 23.4127 728.3 23.4127 771.2 23.4127C814 23.4127 857 23.4127 878.5 23.4127H900V72.1549Z" fill="#001E35"/>
<path d="M900 66.3058L878.5 67.4106C857 68.4505 814 70.6601 771.2 67.4756C728.3 64.3561 685.7 55.9075 642.8 51.4882C600 47.0039 557 46.614 514.2 47.5888C471.3 48.5637 428.7 50.9033 385.8 56.4274C343 61.9515 300 70.6601 257.2 69.2303C214.3 67.8006 171.7 56.3624 128.8 54.7377C86 53.1129 43 61.3016 21.5 65.461L0 69.5553V23.4127H21.5C43 23.4127 86 23.4127 128.8 23.4127C171.7 23.4127 214.3 23.4127 257.2 23.4127C300 23.4127 343 23.4127 385.8 23.4127C428.7 23.4127 471.3 23.4127 514.2 23.4127C557 23.4127 600 23.4127 642.8 23.4127C685.7 23.4127 728.3 23.4127 771.2 23.4127C814 23.4127 857 23.4127 878.5 23.4127H900V66.3058Z" fill="#001220"/>
<path d="M900 3.08494L878.5 2.03606C857 1.04887 814 -1.04887 771.2 1.97437C728.3 4.93592 685.7 12.9568 642.8 17.1523C600 21.4095 557 21.7797 514.2 20.8542C471.3 19.9287 428.7 17.7076 385.8 12.4632C343 7.21878 300 -1.04888 257.2 0.308494C214.3 1.66587 171.7 12.5249 128.8 14.0673C86 15.6098 43 7.83575 21.5 3.88702L0 0V43.8062H21.5C43 43.8062 86 43.8062 128.8 43.8062C171.7 43.8062 214.3 43.8062 257.2 43.8062C300 43.8062 343 43.8062 385.8 43.8062C428.7 43.8062 471.3 43.8062 514.2 43.8062C557 43.8062 600 43.8062 642.8 43.8062C685.7 43.8062 728.3 43.8062 771.2 43.8062C814 43.8062 857 43.8062 878.5 43.8062H900V3.08494Z" fill="#001220"/>
</svg>
